<svg width="196" height="40" viewBox="0 0 196 40" fill="none" xmlns="http://www.w3.org/2000/svg">
<path d="M177 12H191" stroke="#8257E5" stroke-width="2" stroke-linecap="round" stroke-linejoin="round"/>
<path d="M184 5L191 12L184 19" stroke="#8257E5" stroke-width="2" stroke-linecap="round" stroke-linejoin="round"/>
<path d="M4.235 16.224C4.73433 16.224 5.201 16.1213 5.635 15.916C6.069 15.7107 6.44467 15.4237 6.762 15.055V16H8.911V3.96H6.762V9.707C6.47733 9.36167 6.118 9.09333 5.684 8.902C5.25467 8.706 4.79033 8.608 4.291 8.608C3.60033 8.608 2.98433 8.77367 2.443 9.105C1.90167 9.43633 1.477 9.889 1.169 10.463C0.861 11.037 0.707 11.688 0.707 12.416C0.707 13.158 0.865667 13.816 1.183 14.39C1.50033 14.964 1.925 15.4143 2.457 15.741C2.99367 16.063 3.58633 16.224 4.235 16.224ZM4.879 14.397C4.319 14.397 3.85933 14.2127 3.5 13.844C3.14533 13.4707 2.968 12.9993 2.968 12.43C2.968 11.8513 3.15 11.3753 3.514 11.002C3.88267 10.624 4.34233 10.435 4.893 10.435C5.44367 10.435 5.901 10.624 6.265 11.002C6.629 11.3753 6.811 11.8513 6.811 12.43C6.811 12.9993 6.629 13.4707 6.265 13.844C5.90567 14.2127 5.44367 14.397 4.879 14.397ZM14.8829 16.224C15.6389 16.224 16.3249 16.0607 16.9409 15.734C17.5569 15.4073 18.0329 14.9547 18.3689 14.376L16.8219 13.599C16.5559 13.9163 16.2782 14.1473 15.9889 14.292C15.7042 14.4367 15.3752 14.509 15.0019 14.509C14.4045 14.509 13.9239 14.3433 13.5599 14.012C13.1959 13.6807 13.0139 13.242 13.0139 12.696H18.5089C18.5229 12.5747 18.5299 12.493 18.5299 12.451C18.5345 12.4043 18.5369 12.3507 18.5369 12.29C18.5369 11.5573 18.3782 10.9157 18.0609 10.365C17.7482 9.81433 17.3095 9.385 16.7449 9.077C16.1849 8.76433 15.5315 8.608 14.7849 8.608C14.0382 8.608 13.3639 8.77833 12.7619 9.119C12.1645 9.455 11.6885 9.91 11.3339 10.484C10.9792 11.058 10.8019 11.702 10.8019 12.416C10.8019 13.1393 10.9792 13.788 11.3339 14.362C11.6932 14.936 12.1809 15.391 12.7969 15.727C13.4129 16.0583 14.1082 16.224 14.8829 16.224ZM13.0909 11.506C13.1375 11.0907 13.3102 10.764 13.6089 10.526C13.9075 10.288 14.2902 10.169 14.7569 10.169C15.2002 10.169 15.5689 10.288 15.8629 10.526C16.1615 10.764 16.3482 11.0907 16.4229 11.506H13.0909ZM21.5196 7.341C21.8696 7.341 22.1683 7.215 22.4156 6.963C22.663 6.711 22.7866 6.41 22.7866 6.06C22.7866 5.71 22.663 5.41133 22.4156 5.164C22.1683 4.91667 21.8696 4.793 21.5196 4.793C21.165 4.793 20.8616 4.91667 20.6096 5.164C20.3623 5.41133 20.2386 5.71 20.2386 6.06C20.2386 6.41467 20.3623 6.718 20.6096 6.97C20.8616 7.21733 21.165 7.341 21.5196 7.341ZM20.4416 16H22.5906V8.832H20.4416V16ZM23.7944 16H26.3704L28.1624 13.732L29.9544 16H32.5304L29.4714 12.255L32.0964 8.832H29.6044L28.1624 10.757L26.7204 8.832H24.2284L26.8534 12.255L23.7944 16ZM37.1817 16.224C37.9377 16.224 38.6237 16.0607 39.2397 15.734C39.8557 15.4073 40.3317 14.9547 40.6677 14.376L39.1207 13.599C38.8547 13.9163 38.577 14.1473 38.2877 14.292C38.003 14.4367 37.674 14.509 37.3007 14.509C36.7034 14.509 36.2227 14.3433 35.8587 14.012C35.4947 13.6807 35.3127 13.242 35.3127 12.696H40.8077C40.8217 12.5747 40.8287 12.493 40.8287 12.451C40.8334 12.4043 40.8357 12.3507 40.8357 12.29C40.8357 11.5573 40.677 10.9157 40.3597 10.365C40.047 9.81433 39.6084 9.385 39.0437 9.077C38.4837 8.76433 37.8304 8.608 37.0837 8.608C36.337 8.608 35.6627 8.77833 35.0607 9.119C34.4634 9.455 33.9874 9.91 33.6327 10.484C33.278 11.058 33.1007 11.702 33.1007 12.416C33.1007 13.1393 33.278 13.788 33.6327 14.362C33.992 14.936 34.4797 15.391 35.0957 15.727C35.7117 16.0583 36.407 16.224 37.1817 16.224ZM35.3897 11.506C35.4364 11.0907 35.609 10.764 35.9077 10.526C36.2064 10.288 36.589 10.169 37.0557 10.169C37.499 10.169 37.8677 10.288 38.1617 10.526C38.4604 10.764 38.647 11.0907 38.7217 11.506H35.3897ZM42.7748 12.871H47.2828V11.023H42.7748V12.871ZM49.8158 16H51.9648V11.639C51.9648 11.275 52.0978 10.9647 52.3638 10.708C52.6345 10.4513 52.9775 10.323 53.3928 10.323C53.8082 10.323 54.1325 10.456 54.3658 10.722C54.6038 10.988 54.7228 11.3427 54.7228 11.786V16H56.8718V11.618C56.8718 11.2587 57.0025 10.953 57.2638 10.701C57.5298 10.449 57.8728 10.323 58.2928 10.323C58.6988 10.323 59.0232 10.4583 59.2658 10.729C59.5085 10.995 59.6298 11.3613 59.6298 11.828V16H61.7788V11.24C61.7788 10.7033 61.6622 10.239 61.4288 9.847C61.2002 9.45033 60.8852 9.14467 60.4838 8.93C60.0825 8.71533 59.6228 8.608 59.1048 8.608C58.5868 8.608 58.1272 8.72233 57.7258 8.951C57.3245 9.17967 56.9488 9.52033 56.5988 9.973C56.4075 9.55767 56.0902 9.22633 55.6468 8.979C55.2035 8.73167 54.7065 8.608 54.1558 8.608C53.3765 8.608 52.6462 8.94867 51.9648 9.63V8.832H49.8158V16ZM67.6426 16.224C68.3986 16.224 69.0846 16.0607 69.7006 15.734C70.3166 15.4073 70.7926 14.9547 71.1286 14.376L69.5816 13.599C69.3156 13.9163 69.038 14.1473 68.7486 14.292C68.464 14.4367 68.135 14.509 67.7616 14.509C67.1643 14.509 66.6836 14.3433 66.3196 14.012C65.9556 13.6807 65.7736 13.242 65.7736 12.696H71.2686C71.2826 12.5747 71.2896 12.493 71.2896 12.451C71.2943 12.4043 71.2966 12.3507 71.2966 12.29C71.2966 11.5573 71.138 10.9157 70.8206 10.365C70.508 9.81433 70.0693 9.385 69.5046 9.077C68.9446 8.76433 68.2913 8.608 67.5446 8.608C66.798 8.608 66.1236 8.77833 65.5216 9.119C64.9243 9.455 64.4483 9.91 64.0936 10.484C63.739 11.058 63.5616 11.702 63.5616 12.416C63.5616 13.1393 63.739 13.788 64.0936 14.362C64.453 14.936 64.9406 15.391 65.5566 15.727C66.1726 16.0583 66.868 16.224 67.6426 16.224ZM65.8506 11.506C65.8973 11.0907 66.07 10.764 66.3686 10.526C66.6673 10.288 67.05 10.169 67.5166 10.169C67.96 10.169 68.3286 10.288 68.6226 10.526C68.9213 10.764 69.108 11.0907 69.1826 11.506H65.8506ZM77.0092 16H79.1582V3.96H77.0092V16ZM85.129 16.224C85.885 16.224 86.571 16.0607 87.187 15.734C87.803 15.4073 88.279 14.9547 88.615 14.376L87.068 13.599C86.802 13.9163 86.5243 14.1473 86.235 14.292C85.9503 14.4367 85.6213 14.509 85.248 14.509C84.6506 14.509 84.17 14.3433 83.806 14.012C83.442 13.6807 83.26 13.242 83.26 12.696H88.755C88.769 12.5747 88.776 12.493 88.776 12.451C88.7806 12.4043 88.783 12.3507 88.783 12.29C88.783 11.5573 88.6243 10.9157 88.307 10.365C87.9943 9.81433 87.5556 9.385 86.991 9.077C86.431 8.76433 85.7776 8.608 85.031 8.608C84.2843 8.608 83.61 8.77833 83.008 9.119C82.4106 9.455 81.9346 9.91 81.58 10.484C81.2253 11.058 81.048 11.702 81.048 12.416C81.048 13.1393 81.2253 13.788 81.58 14.362C81.9393 14.936 82.427 15.391 83.043 15.727C83.659 16.0583 84.3543 16.224 85.129 16.224ZM83.337 11.506C83.3836 11.0907 83.5563 10.764 83.855 10.526C84.1536 10.288 84.5363 10.169 85.003 10.169C85.4463 10.169 85.815 10.288 86.109 10.526C86.4076 10.764 86.5943 11.0907 86.669 11.506H83.337ZM90.6947 16H92.8437V11.996C92.8437 11.73 92.9207 11.4827 93.0747 11.254C93.2334 11.0207 93.4364 10.8317 93.6837 10.687C93.9357 10.5423 94.2017 10.47 94.4817 10.47C94.8877 10.47 95.2704 10.5867 95.6297 10.82L96.5257 9.007C96.3391 8.89033 96.1104 8.79467 95.8397 8.72C95.5737 8.64533 95.3147 8.608 95.0627 8.608C94.6194 8.608 94.2041 8.71767 93.8167 8.937C93.4341 9.15167 93.1097 9.45967 92.8437 9.861V8.832H90.6947V16ZM101.496 19.64H103.645V15.055C103.962 15.4283 104.338 15.7177 104.772 15.923C105.206 16.1237 105.668 16.224 106.158 16.224C106.83 16.224 107.432 16.0583 107.964 15.727C108.5 15.391 108.923 14.936 109.231 14.362C109.539 13.7833 109.693 13.1347 109.693 12.416C109.693 11.688 109.536 11.037 109.224 10.463C108.916 9.889 108.491 9.43633 107.95 9.105C107.413 8.77367 106.799 8.608 106.109 8.608C105.614 8.608 105.152 8.706 104.723 8.902C104.293 9.09333 103.934 9.36167 103.645 9.707V8.832H101.496V19.64ZM105.521 14.397C104.961 14.397 104.499 14.2127 104.135 13.844C103.771 13.4707 103.589 12.997 103.589 12.423C103.589 11.849 103.771 11.3753 104.135 11.002C104.503 10.624 104.965 10.435 105.521 10.435C106.071 10.435 106.526 10.624 106.886 11.002C107.25 11.3753 107.432 11.8513 107.432 12.43C107.432 13.004 107.252 13.4753 106.893 13.844C106.533 14.2127 106.076 14.397 105.521 14.397ZM111.667 16H113.816V11.996C113.816 11.73 113.893 11.4827 114.047 11.254C114.206 11.0207 114.409 10.8317 114.656 10.687C114.908 10.5423 115.174 10.47 115.454 10.47C115.86 10.47 116.243 10.5867 116.602 10.82L117.498 9.007C117.312 8.89033 117.083 8.79467 116.812 8.72C116.546 8.64533 116.287 8.608 116.035 8.608C115.592 8.608 115.177 8.71767 114.789 8.937C114.407 9.15167 114.082 9.45967 113.816 9.861V8.832H111.667V16ZM119.766 7.341C120.116 7.341 120.414 7.215 120.662 6.963C120.909 6.711 121.033 6.41 121.033 6.06C121.033 5.71 120.909 5.41133 120.662 5.164C120.414 4.91667 120.116 4.793 119.766 4.793C119.411 4.793 119.108 4.91667 118.856 5.164C118.608 5.41133 118.485 5.71 118.485 6.06C118.485 6.41467 118.608 6.718 118.856 6.97C119.108 7.21733 119.411 7.341 119.766 7.341ZM118.688 16H120.837V8.832H118.688V16ZM123.371 16H125.52V11.639C125.52 11.275 125.653 10.9647 125.919 10.708C126.189 10.4513 126.532 10.323 126.948 10.323C127.363 10.323 127.687 10.456 127.921 10.722C128.159 10.988 128.278 11.3427 128.278 11.786V16H130.427V11.618C130.427 11.2587 130.557 10.953 130.819 10.701C131.085 10.449 131.428 10.323 131.848 10.323C132.254 10.323 132.578 10.4583 132.821 10.729C133.063 10.995 133.185 11.3613 133.185 11.828V16H135.334V11.24C135.334 10.7033 135.217 10.239 134.984 9.847C134.755 9.45033 134.44 9.14467 134.039 8.93C133.637 8.71533 133.178 8.608 132.66 8.608C132.142 8.608 131.682 8.72233 131.281 8.951C130.879 9.17967 130.504 9.52033 130.154 9.973C129.962 9.55767 129.645 9.22633 129.202 8.979C128.758 8.73167 128.261 8.608 127.711 8.608C126.931 8.608 126.201 8.94867 125.52 9.63V8.832H123.371V16ZM141.197 16.224C141.953 16.224 142.639 16.0607 143.255 15.734C143.871 15.4073 144.347 14.9547 144.683 14.376L143.136 13.599C142.87 13.9163 142.593 14.1473 142.303 14.292C142.019 14.4367 141.69 14.509 141.316 14.509C140.719 14.509 140.238 14.3433 139.874 14.012C139.51 13.6807 139.328 13.242 139.328 12.696H144.823C144.837 12.5747 144.844 12.493 144.844 12.451C144.849 12.4043 144.851 12.3507 144.851 12.29C144.851 11.5573 144.693 10.9157 144.375 10.365C144.063 9.81433 143.624 9.385 143.059 9.077C142.499 8.76433 141.846 8.608 141.099 8.608C140.353 8.608 139.678 8.77833 139.076 9.119C138.479 9.455 138.003 9.91 137.648 10.484C137.294 11.058 137.116 11.702 137.116 12.416C137.116 13.1393 137.294 13.788 137.648 14.362C138.008 14.936 138.495 15.391 139.111 15.727C139.727 16.0583 140.423 16.224 141.197 16.224ZM139.405 11.506C139.452 11.0907 139.625 10.764 139.923 10.526C140.222 10.288 140.605 10.169 141.071 10.169C141.515 10.169 141.883 10.288 142.177 10.526C142.476 10.764 142.663 11.0907 142.737 11.506H139.405ZM147.834 7.341C148.184 7.341 148.483 7.215 148.73 6.963C148.977 6.711 149.101 6.41 149.101 6.06C149.101 5.71 148.977 5.41133 148.73 5.164C148.483 4.91667 148.184 4.793 147.834 4.793C147.479 4.793 147.176 4.91667 146.924 5.164C146.677 5.41133 146.553 5.71 146.553 6.06C146.553 6.41467 146.677 6.718 146.924 6.97C147.176 7.21733 147.479 7.341 147.834 7.341ZM146.756 16H148.905V8.832H146.756V16ZM151.439 16H153.588V11.996C153.588 11.73 153.665 11.4827 153.819 11.254C153.978 11.0207 154.181 10.8317 154.428 10.687C154.68 10.5423 154.946 10.47 155.226 10.47C155.632 10.47 156.015 10.5867 156.374 10.82L157.27 9.007C157.083 8.89033 156.855 8.79467 156.584 8.72C156.318 8.64533 156.059 8.608 155.807 8.608C155.364 8.608 154.948 8.71767 154.561 8.937C154.178 9.15167 153.854 9.45967 153.588 9.861V8.832H151.439V16ZM161.954 16.224C162.748 16.224 163.462 16.063 164.096 15.741C164.731 15.4143 165.233 14.9663 165.601 14.397C165.975 13.823 166.161 13.1627 166.161 12.416C166.161 11.6693 165.975 11.0113 165.601 10.442C165.233 9.868 164.731 9.42 164.096 9.098C163.462 8.77133 162.748 8.608 161.954 8.608C161.166 8.608 160.452 8.77133 159.812 9.098C159.178 9.42 158.674 9.868 158.3 10.442C157.932 11.0113 157.747 11.6693 157.747 12.416C157.747 13.1627 157.932 13.823 158.3 14.397C158.674 14.9663 159.178 15.4143 159.812 15.741C160.452 16.063 161.166 16.224 161.954 16.224ZM161.954 14.39C161.59 14.39 161.259 14.306 160.96 14.138C160.666 13.97 160.433 13.739 160.26 13.445C160.088 13.1463 160.001 12.8033 160.001 12.416C160.001 12.0287 160.088 11.688 160.26 11.394C160.433 11.0953 160.666 10.862 160.96 10.694C161.259 10.526 161.59 10.442 161.954 10.442C162.323 10.442 162.654 10.526 162.948 10.694C163.247 10.862 163.483 11.0953 163.655 11.394C163.833 11.688 163.921 12.0287 163.921 12.416C163.921 12.8033 163.833 13.1463 163.655 13.445C163.483 13.739 163.247 13.97 162.948 14.138C162.654 14.306 162.323 14.39 161.954 14.39Z" fill="#8257E5"/>
</svg>
